<?xml version="1.0" encoding="UTF-8" standalone="no"?>
<!-- Created with Inkscape (http://www.inkscape.org/) -->

<svg
   width="210mm"
   height="297mm"
   viewBox="0 0 210 297"
   version="1.1"
   id="svg5"
   inkscape:version="1.1.1 (3bf5ae0d25, 2021-09-20)"
   sodipodi:docname="avatar.svg"
   xmlns:inkscape="http://www.inkscape.org/namespaces/inkscape"
   xmlns:sodipodi="http://sodipodi.sourceforge.net/DTD/sodipodi-0.dtd"
   xmlns="http://www.w3.org/2000/svg"
   xmlns:svg="http://www.w3.org/2000/svg">
  <sodipodi:namedview
     id="namedview7"
     pagecolor="#ffffff"
     bordercolor="#cccccc"
     borderopacity="1"
     inkscape:pageshadow="0"
     inkscape:pageopacity="1"
     inkscape:pagecheckerboard="0"
     inkscape:document-units="mm"
     showgrid="false"
     inkscape:zoom="0.5701459"
     inkscape:cx="51.741142"
     inkscape:cy="557.75197"
     inkscape:window-width="1920"
     inkscape:window-height="1028"
     inkscape:window-x="0"
     inkscape:window-y="28"
     inkscape:window-maximized="1"
     inkscape:current-layer="layer1" />
  <defs
     id="defs2" />
  <g
     inkscape:label="Layer 1"
     inkscape:groupmode="layer"
     id="layer1">
    <path
       style="fill:#000000;fill-opacity:1;fill-rule:nonzero;stroke:none;stroke-width:0.264583"
       id="path1136"
       d="m 23.375672,255.4432 c 0.408201,-3.75245 0.953034,-7.48877 1.3722,-11.24069 0.518458,-4.6373 1.534842,-9.19343 2.599014,-13.7297 1.072269,-4.0032 2.321631,-7.95499 3.434635,-11.94629 1.083429,-3.93173 2.583831,-7.72806 4.116816,-11.50145 1.144032,-2.95114 2.428039,-5.84658 3.711184,-8.73945 0.964642,-2.04302 2.025785,-4.03711 3.137506,-6.00308 0.797906,-1.38351 1.736428,-2.66277 2.718956,-3.91598 0.993,-1.07593 2.10285,-2.02149 3.292792,-2.87043 2.294967,-1.36533 -2.01378,1.14902 -3.002851,1.75336 -0.171675,0.10489 0.363543,-0.17308 0.550362,-0.24774 0.497682,-0.19889 1.00293,-0.30658 1.527961,-0.39956 1.233863,-0.14595 2.480535,-0.12425 3.720944,-0.12082 1.184471,-0.01 2.234668,0.36255 3.258865,0.918 0.963366,0.58348 1.873181,1.25082 2.795902,1.89567 1.18124,0.91256 2.533767,1.55215 3.822978,2.29003 1.610064,0.98281 3.280238,1.86705 4.974378,2.69553 1.661602,0.77186 3.330938,1.52714 4.991357,2.30173 2.079368,1.0094 4.193775,1.9431 6.28782,2.92126 1.991865,0.91158 3.99615,1.8037 6.015014,2.6548 1.350901,0.51697 2.705385,1.02525 4.094596,1.42985 1.698395,0.50093 3.448738,0.79143 5.186307,1.11885 2.482691,0.43258 4.972598,0.81709 7.467047,1.17545 2.247715,0.31241 4.511095,0.46321 6.777985,0.52782 2.60282,0.17323 5.17383,-0.18054 7.73849,-0.57314 2.34698,-0.3364 4.68404,-0.75021 6.99266,-1.29155 1.80077,-0.44756 3.50666,-1.16394 5.20857,-1.88747 2.20417,-0.9043 4.35932,-1.9227 6.51052,-2.9451 2.15143,-0.90676 4.29178,-1.82623 6.34801,-2.93567 3.3042,-1.76426 6.59215,-3.57037 9.76851,-5.5576 1.72598,-1.16023 3.44352,-2.33036 5.14627,-3.52538 1.5856,-1.17326 8.6595,-5.29057 0.88121,-0.71699 1.06662,-0.54353 2.16236,-1.14385 3.37896,-1.20954 1.39631,0.39332 2.41183,1.58168 3.37824,2.60307 1.28537,1.39279 2.53445,2.81404 3.72679,4.28734 1.67854,2.17383 3.23757,4.43759 4.81367,6.68612 1.98666,2.77776 3.70773,5.71574 5.14938,8.8085 1.40872,3.26845 2.61489,6.61332 3.64505,10.0185 1.05304,3.76848 1.9926,7.57108 2.84541,11.38982 0.6322,3.15868 1.43289,6.27689 2.26755,9.38679 0.48429,2.30488 1.08805,4.57983 1.64215,6.86809 0.54787,2.42261 1.17316,4.82777 1.70363,7.25415 0.27279,1.59351 0.61565,3.1724 0.80377,4.77925 0.0637,0.97906 0.19652,1.97708 0.0478,2.95235 0,0 4.42766,-2.19388 4.42766,-2.19388 v 0 c 0.0783,-1.01614 -0.007,-2.03769 -0.11774,-3.04904 -0.22289,-1.61153 -0.59124,-3.19535 -0.86929,-4.79756 -0.56724,-2.41798 -1.22307,-4.81505 -1.72954,-7.24781 -0.55054,-2.29169 -1.13233,-4.57574 -1.66404,-6.87182 -0.84894,-3.09436 -1.69261,-6.18909 -2.31292,-9.33979 -0.88617,-3.82163 -1.82025,-7.63532 -2.86305,-11.41723 -1.02505,-3.43198 -2.2474,-6.79667 -3.66303,-10.08813 -1.46262,-3.11274 -3.19775,-6.07309 -5.16162,-8.89874 -1.58962,-2.24993 -3.13658,-4.53089 -4.78671,-6.73711 -1.18389,-1.49328 -2.44034,-2.92372 -3.72098,-4.33458 -1.04095,-1.12509 -2.13233,-2.29611 -3.55062,-2.93596 -0.182,-0.0285 -0.36181,-0.0893 -0.54599,-0.0856 -1.06532,0.0209 -2.08363,0.70339 -3.023,1.10701 -3.12337,1.77289 -6.28427,3.48605 -9.22062,5.56321 -1.70778,1.20041 -3.44168,2.35998 -5.18417,3.50935 -1.94432,1.18556 -0.72351,0.43227 2.55075,-1.44273 0.29548,-0.16921 -0.58534,0.34818 -0.88173,0.51579 -1.02737,0.58098 -2.07223,1.13221 -3.11596,1.68289 -2.02896,1.14384 -4.15627,2.07752 -6.31608,2.9448 -2.13521,1.03813 -4.28802,2.04981 -6.48378,2.95347 -1.69531,0.71478 -3.37701,1.46283 -5.15854,1.94631 -2.30613,0.59874 -4.66089,1.00257 -7.01476,1.36189 -2.53285,0.39871 -5.06972,0.78749 -7.64378,0.61185 -2.26254,-0.0546 -4.52532,-0.16249 -6.7705,-0.46447 -2.48297,-0.35063 -4.960962,-0.72987 -7.429358,-1.17182 -1.713071,-0.34401 -3.447211,-0.61445 -5.123815,-1.1141 -1.389451,-0.3723 -2.735284,-0.88658 -4.092506,-1.36113 -2.031632,-0.82042 -4.033004,-1.72713 -6.035614,-2.61437 -2.087846,-0.97652 -4.184431,-1.93437 -6.258526,-2.93988 -1.653373,-0.77957 -3.312054,-1.5485 -4.97396,-2.30924 -1.698887,-0.79081 -3.363153,-1.67066 -4.956397,-2.65746 -1.258308,-0.7564 -2.604093,-1.37519 -3.772427,-2.27459 -0.932484,-0.65971 -1.85394,-1.33571 -2.819352,-1.94677 -1.077846,-0.5926 -2.145485,-1.08452 -3.404444,-1.11454 -1.251066,-0.005 -2.503244,-0.018 -3.752961,0.0524 -2.85628,0.34239 -5.241732,2.0227 -7.586599,3.66262 -1.178187,0.89417 -2.301729,1.86701 -3.258087,3.00064 -0.980511,1.25308 -1.833393,2.5945 -2.641976,3.96409 -1.100471,1.9755 -2.144397,3.98329 -3.093873,6.03614 -1.247225,2.89017 -2.482842,5.78692 -3.631136,8.71791 -1.517436,3.78644 -2.979505,7.60309 -4.071893,11.53765 -1.132747,3.98573 -2.366712,7.94218 -3.405601,11.95466 -1.080903,4.5449 -2.011079,9.12604 -2.556187,13.77009 -0.452086,3.79339 -0.982489,7.57573 -1.596329,11.34647 0,0 4.432673,-2.18956 4.432673,-2.18956 z" />
    <path
       style="fill:#000000;fill-opacity:1;fill-rule:nonzero;stroke:none;stroke-width:0.264583"
       id="path1138"
       d="m 113.45649,50.410414 c -1.87425,-0.185852 -3.75574,-0.332071 -5.63978,-0.311449 -1.78584,0.01635 -3.53859,0.37824 -5.1994,1.021487 -2.710145,1.244018 -5.398306,2.645291 -7.727507,4.519512 -1.424241,1.150601 -2.7213,2.438194 -4.007535,3.738353 -1.164363,1.313987 -2.36269,2.598944 -3.485552,3.949875 -1.384036,1.570511 -2.607839,3.267728 -3.901628,4.910545 -1.459669,1.908667 -2.888176,3.839157 -4.304887,5.779614 -1.590868,2.058535 -2.750939,4.383659 -3.877337,6.715281 -1.255339,2.712722 -2.342004,5.498025 -3.469208,8.265215 -1.645986,3.728794 -3.22358,7.483557 -4.744837,11.264853 -1.409197,3.41814 -2.530406,6.93981 -3.301497,10.55399 -0.808747,4.28329 -1.138523,8.63105 -1.338609,12.97868 -0.146783,3.99196 -0.09408,7.98726 -0.09941,11.98097 -0.01331,3.28469 -0.06558,6.56558 0.112763,9.84621 0.0711,2.34067 0.479385,4.64704 0.840941,6.95453 0.267679,1.52834 0.673738,3.0122 1.124363,4.49373 0.676952,2.14033 1.522846,4.21408 2.492949,6.23667 1.215012,2.88789 2.905435,5.4952 4.800764,7.97246 1.28878,1.68877 2.599468,3.36793 4.150027,4.82854 0.391318,0.36862 1.876999,1.6292 2.313535,2.00198 1.629442,1.42511 3.48982,2.52616 5.422802,3.47954 2.016397,1.07048 4.274396,1.43849 6.495806,1.82465 2.579481,0.47348 5.199142,0.624 7.815115,0.7161 2.789102,0.16161 5.555272,0.008 8.315912,-0.39312 2.63171,-0.46671 5.22804,-1.09056 7.78475,-1.86629 3.15396,-1.10399 6.12604,-2.66962 9.13967,-4.10339 4.2443,-2.06889 8.28867,-4.50651 12.35781,-6.89289 2.54506,-1.45289 4.94529,-3.13633 7.20464,-4.99909 2.65215,-2.36685 4.81282,-5.20361 6.98914,-7.99549 2.47652,-3.15939 4.33986,-6.70661 6.02855,-10.33041 1.82631,-4.11113 3.05564,-8.4511 4.29143,-12.76659 1.28845,-4.36873 2.34558,-8.79879 3.37353,-13.23428 0.99739,-4.18912 1.57387,-8.43592 1.8322,-12.72857 0.17193,-4.26911 0.27875,-8.54454 0.15977,-12.816161 -0.0382,-3.783375 -0.68771,-7.507221 -1.58448,-11.16983 -0.67985,-2.405692 -1.43538,-4.78908 -2.5569,-7.030709 -0.37026,-0.740064 -1.23554,-2.239026 -1.65265,-2.97193 -1.46553,-2.571311 -3.19494,-4.973854 -4.92343,-7.371085 -2.02004,-2.919738 -4.18791,-5.732113 -6.43879,-8.47671 -1.90044,-2.272565 -3.91814,-4.437796 -6.18691,-6.344666 -1.64913,-1.39283 -3.6693,-2.134859 -5.68658,-2.8111 -2.23109,-0.731303 -4.50648,-1.309825 -6.7944,-1.830769 -2.26062,-0.602202 -4.58019,-0.916252 -6.89508,-1.222335 -2.38662,-0.285279 -4.78873,-0.402902 -7.19009,-0.467807 -1.54635,-0.07971 -3.08167,-0.04538 -4.61772,0.139679 -0.81041,0.112098 -1.58645,0.398071 -2.2922,0.810964 -4.82875,2.825025 -3.37902,1.716301 -5.41755,3.338695 -0.72919,0.708316 -1.49518,1.381024 -2.16005,2.151009 0,0 4.55579,-1.912268 4.55579,-1.912268 v 0 c 0.6886,-0.716679 1.39106,-1.421537 2.15823,-2.055296 1.74727,-1.288974 0.74521,-0.510839 -2.96528,1.566055 -0.18665,0.104473 0.36434,-0.224621 0.55248,-0.326371 0.51235,-0.277088 1.04937,-0.516779 1.6237,-0.629166 1.53593,-0.208349 3.06392,-0.323356 4.61685,-0.230347 2.39711,0.04519 4.7968,0.128453 7.17964,0.410703 2.29807,0.302135 4.60832,0.590214 6.84983,1.199099 2.27898,0.518157 4.56173,1.032081 6.77877,1.782937 1.96615,0.657352 3.94894,1.340618 5.57977,2.669503 2.29872,1.841074 4.33088,3.957841 6.22616,6.211729 2.26599,2.718625 4.37232,5.558911 6.37251,8.478472 1.71197,2.388862 3.45625,4.762315 4.92225,7.314581 0.39069,0.676648 1.30484,2.239589 1.65181,2.924328 1.11994,2.210105 1.84279,4.571656 2.51296,6.948649 0.87324,3.630875 1.5175,7.320867 1.56293,11.067084 0.10064,4.256733 0.0339,8.518763 -0.16707,12.771873 -0.29533,4.26054 -0.8704,8.48276 -1.83945,12.64734 -1.01392,4.43973 -2.15764,8.84521 -3.40917,13.22425 -1.22338,4.30156 -2.47124,8.6171 -4.32602,12.69818 -1.71381,3.60196 -3.62022,7.10968 -6.1059,10.24878 -2.17974,2.7837 -4.36562,5.60119 -7.06495,7.90993 -2.28869,1.82737 -4.70076,3.48687 -7.24242,4.94582 0.96103,-0.54186 1.91946,-1.08837 2.88309,-1.6256 0.44059,-0.24563 -0.87535,0.5016 -1.31393,0.7508 -1.87373,1.06461 -3.77965,2.06694 -5.69638,3.0518 -2.98976,1.42711 -5.9455,2.96067 -9.05002,4.12115 -2.54314,0.80456 -5.13073,1.42976 -7.75099,1.9303 -2.73653,0.44502 -5.47893,0.62419 -8.25125,0.45667 -2.603001,-0.0775 -5.211075,-0.20151 -7.780383,-0.65735 -2.17261,-0.3821 -4.393912,-0.70273 -6.372458,-1.74333 -1.916388,-0.92538 -3.79794,-1.94069 -5.420087,-3.33834 -0.316463,-0.26498 -2.033985,-1.69674 -2.309503,-1.95386 -1.541391,-1.43846 -2.82973,-3.1157 -4.109617,-4.78205 -1.873046,-2.45082 -3.559683,-5.02427 -4.74009,-7.89107 -0.945864,-2.0139 -1.723646,-4.09128 -2.37975,-6.21768 -0.444854,-1.45769 -0.826254,-2.92628 -1.117663,-4.42346 -0.392094,-2.28082 -0.776536,-4.56837 -0.861018,-6.88619 -0.196371,-3.25744 -0.162353,-6.51896 -0.179856,-9.78132 -0.01027,-3.98975 0.0024,-7.98042 0.12169,-11.9687 0.178835,-4.32449 0.487254,-8.6566 1.370658,-12.90315 0.80967,-3.58789 1.967511,-7.07674 3.343529,-10.488035 1.498037,-3.795156 3.106314,-7.53995 4.765252,-11.267418 1.159229,-2.759305 2.24659,-5.550543 3.525464,-8.25799 1.14263,-2.309868 2.334287,-4.599903 3.923475,-6.642515 1.420455,-1.942592 2.862408,-3.869614 4.333213,-5.77433 1.284666,-1.651524 2.540823,-3.324376 3.920874,-4.899327 1.141701,-1.333312 2.32978,-2.625407 3.515185,-3.919813 1.286082,-1.294923 2.597841,-2.563913 4.043654,-3.682658 1.427381,-1.053624 4.229401,-2.583797 -2.446504,1.254487 -1.274157,0.732571 2.887204,-1.752737 1.766834,-0.915098 1.605261,-0.733468 3.347821,-1.136703 5.114481,-1.187556 1.84665,-0.06703 3.69576,0.07448 5.53002,0.290216 0,0 4.04621,-2.852909 4.04621,-2.852909 z" />
    <path
       style="fill:#000000;fill-opacity:1;fill-rule:nonzero;stroke:none;stroke-width:0.264583"
       id="path1140"
       d="m 66.035366,201.59063 c -0.256061,0.44687 -0.499059,0.90148 -0.768183,1.3406 -1.618205,2.64038 -3.339864,5.22333 -4.992124,7.84246 -2.664187,4.22321 -1.885828,2.98106 -4.49104,7.35035 -3.122284,5.38042 -5.957226,10.95047 -8.159385,16.77387 -0.635979,1.84531 -1.050258,3.75398 -1.546889,5.63832 -0.374007,1.41907 -0.765421,2.79863 -1.016344,4.24496 0.09608,0.25568 0.07046,0.60221 0.288256,0.76705 0.301617,0.2283 0.72264,0.32115 1.098978,0.28295 1.373691,-0.13943 4.65871,-1.84319 5.381308,-2.20284 1.626068,-0.80933 8.956217,-4.68713 10.177642,-5.33099 5.384962,-2.83265 10.807938,-5.59392 16.244435,-8.32626 1.412706,-0.71001 4.586536,-2.3912 6.344076,-2.8782 0.528463,-0.14643 1.09293,-0.0914 1.639395,-0.13714 0.201753,0.23542 0.545627,0.40201 0.605253,0.70626 0.195263,0.99639 -0.691766,3.36426 -0.930148,4.00548 -1.035103,2.78431 -2.421009,5.42859 -3.682322,8.11315 0.220413,3.04287 -0.08515,2.28672 6.104358,-2.85404 1.278125,-1.06155 2.06385,-2.60435 3.103345,-3.90048 1.556801,-1.94115 3.036366,-3.94796 4.685501,-5.81131 5.291122,-5.97839 8.415982,-8.70179 14.228592,-14.22252 2.28646,-2.03188 4.49014,-4.1609 6.85937,-6.09561 4.34972,-3.55199 3.63351,-4.29706 6.70566,-4.30055 1.0079,-0.001 2.07944,-0.32778 3.02361,0.025 1.99399,0.74491 2.21862,3.16235 2.7119,4.77026 0.27901,4.27867 0.35114,3.06587 0.0244,7.35194 -0.148,1.94168 -0.94569,5.2577 0.42471,7.04416 0.25056,0.32661 0.67584,0.47018 1.01376,0.70526 0.87723,0.52376 2.03435,-0.0637 2.92304,0.36104 1.09646,0.52408 1.09937,2.42602 1.2538,3.37035 0.12901,0.5785 0.0905,1.22232 0.38703,1.73549 1.69509,2.93295 6.18215,0.54716 8.58412,0.40328 0.69268,-0.0415 1.37672,0.17542 2.06508,0.26314 0.51524,0.47452 1.17502,0.82924 1.54571,1.42357 1.05542,1.69213 1.31361,4.35467 1.46897,6.20747 0.29974,3.57479 0.0862,7.18947 0.10169,10.77164 0.12635,0.93771 0.0818,3.10373 1.19003,3.83637 0.4416,0.29193 1.08779,0.42253 1.57379,0.21269 5.19907,-2.24486 6.92082,-4.1476 10.50164,-7.7649 1.28723,-1.28321 2.18437,-2.31122 3.65978,-3.33264 0.42473,-0.29404 1.77315,-1.05263 1.3609,-0.74135 -5.30959,4.00929 -4.02563,1.62643 -2.44182,2.15701 0.20466,0.0685 0.36425,0.23164 0.54637,0.34745 0.57293,0.86312 0.30888,0.39007 0.76916,1.43173 0,0 4.25558,-2.39495 4.25558,-2.39495 v 0 c -0.5118,-1.17308 -0.21477,-0.61816 -0.88398,-1.66856 -0.22332,-0.17453 -0.4151,-0.39958 -0.66996,-0.52361 -2.08259,-1.01353 -4.89764,1.7671 -6.0653,2.37684 -1.88921,0.98653 -3.31389,2.63123 -4.7939,4.1143 -0.72831,0.72305 -1.43364,1.47003 -2.18494,2.16916 -0.73638,0.68524 -2.12419,0.98734 -2.27574,1.98174 -0.11745,0.77064 1.57237,-0.42885 2.12314,-0.98051 0.31571,-0.31623 -0.91991,0.36628 -1.32785,0.18392 -1.11194,-0.49706 -1.12627,-2.82483 -1.23652,-3.50081 -0.0234,-1.04451 -0.0629,-2.08878 -0.0702,-3.13352 -0.0209,-3.01704 0.12003,-4.61064 -0.11233,-7.65489 -0.15325,-2.00792 -0.37224,-4.73643 -1.47026,-6.56983 -0.4078,-0.68091 -1.13082,-1.114 -1.69623,-1.671 -0.73365,-0.12645 -1.45702,-0.40723 -2.20097,-0.37935 -1.90589,0.0714 -6.75802,2.47432 -8.10571,0.17443 -0.29523,-0.50381 -0.24678,-1.14152 -0.37017,-1.71228 -0.18971,-1.24093 -0.21103,-3.16732 -1.46905,-3.93473 -0.83211,-0.50759 -1.96844,0.0295 -2.855,-0.20002 -0.30109,-0.14598 -0.67623,-0.19215 -0.90328,-0.43794 -1.41099,-1.52741 -0.67124,-5.00663 -0.56285,-6.70725 0.28422,-4.45941 0.23088,-3.02909 -0.0478,-7.51984 -0.56074,-1.85822 -0.77,-4.39196 -3.01408,-5.26593 -3.71642,-1.4474 -9.6941,3.14086 -11.43937,4.22173 -4.18196,2.58995 -8.7887,7.0909 -12.31288,10.26354 -5.705,5.42521 -9.220978,8.5703 -14.516603,14.39463 -1.735426,1.90868 -3.303011,3.96357 -4.971497,5.93104 -1.135713,1.33922 -3.061941,2.27424 -3.440898,3.98881 -0.189765,0.85858 3.49351,0.20453 2.488435,-0.87531 1.233723,-2.70949 2.623074,-5.37642 3.663791,-8.16895 0.394748,-1.05921 1.243653,-3.21357 0.861351,-4.52254 -0.1291,-0.44203 -0.609579,-0.6904 -0.914368,-1.0356 -0.615384,0.0377 -1.250199,-0.0449 -1.846151,0.11313 -1.776791,0.47101 -5.203913,2.31709 -6.602667,3.02952 -5.455615,2.77872 -10.905535,5.56941 -16.33711,8.39486 -1.110245,0.57955 -8.378119,4.38534 -9.916152,5.14737 -1.382011,0.68472 -3.377486,1.65114 -4.965353,2.18257 -0.250556,0.0839 -0.524381,0.25559 -0.774261,0.16975 -0.173921,-0.0597 -0.141997,-0.33928 -0.212995,-0.50892 0.528674,-3.31482 1.566921,-6.54516 2.512335,-9.75776 2.092217,-5.76201 4.821886,-11.27535 7.909724,-16.56684 3.415215,-5.6658 7.056374,-11.18099 10.66505,-16.72321 0,0 -4.480412,1.99241 -4.480412,1.99241 z" />
    <path
       style="fill:#000000;fill-opacity:1;fill-rule:nonzero;stroke:none;stroke-width:0.264583"
       id="path1142"
       d="m 82.51572,76.477515 c -0.805993,4.274434 -0.375635,8.669364 0.08559,12.958056 0.56361,3.034805 1.018723,6.890983 4.02739,8.612778 1.793954,1.026641 3.179934,0.883285 5.180843,1.028332 6.174756,-0.379688 12.014557,-2.644831 17.816947,-4.623631 2.25275,-0.781264 4.49043,-1.606423 6.75343,-2.358131 0.96345,-0.320029 1.75518,-0.784148 2.78387,-0.295129 0.48897,0.232444 0.82928,0.696256 1.24392,1.044384 2.11608,2.99148 3.17943,6.540625 4.61849,9.872096 0.32787,0.75901 0.62209,1.53755 1.03276,2.25513 0.32939,0.57557 0.78408,1.06973 1.17613,1.60459 0.47176,0.27895 0.88108,0.71438 1.41528,0.83685 2.21407,0.50757 5.56097,-1.7291 7.25755,-2.673 3.38743,-1.88463 6.71853,-3.86877 10.0744,-5.809048 -0.47879,0.38548 -1.74287,0.623615 -1.43638,1.156438 0.33112,0.57563 1.32261,-0.294468 1.98119,-0.209288 0.55995,0.07242 1.08928,0.350678 1.55702,0.666908 1.50595,1.01817 2.26857,2.82952 3.03296,4.38797 1.18657,2.98654 2.20079,6.04394 3.90211,8.78585 2.16854,2.77841 4.63636,5.30406 7.01341,7.90164 0,0 4.03649,-2.45165 4.03649,-2.45165 v 0 c -2.37731,-2.54883 -4.7867,-5.08103 -6.87961,-7.87459 -1.68511,-2.73366 -2.75361,-5.74194 -3.92572,-8.71949 -0.9996,-2.0127 -2.40626,-5.052456 -4.92477,-5.515416 -2.96063,-0.544229 -6.99712,2.664034 -8.62543,3.511346 0.3154,-0.17803 1.25944,-0.715941 0.94621,-0.5341 -1.55046,0.90011 -4.57064,2.65658 -6.20809,3.48624 -0.80101,0.40586 -2.6916,1.37929 -3.78108,1.26042 -0.49391,-0.0539 -0.898,-0.42544 -1.34701,-0.63817 -0.39411,-0.49483 -0.85387,-0.94385 -1.18235,-1.48448 -0.42497,-0.69946 -0.73001,-1.46562 -1.06403,-2.21281 -1.5124,-3.383186 -2.55172,-7.006739 -4.60622,-10.124063 -0.98081,-0.930246 -1.35286,-1.709523 -2.83112,-1.642713 -0.52879,0.02389 -1.00799,0.323723 -1.50925,0.493802 -2.30057,0.780598 -4.57306,1.640954 -6.86485,2.446399 -2.93258,1.006924 -5.86684,2.018016 -8.83248,2.924807 -1.97761,0.604684 -3.79281,1.147302 -5.839644,1.483791 -0.993616,0.163343 -2.001549,0.222727 -3.002322,0.334092 -1.821064,-0.08705 -3.283876,0.06557 -4.948304,-0.814784 -2.955663,-1.563314 -3.379284,-5.373042 -3.927583,-8.26389 -0.435557,-4.293052 -0.829895,-8.718365 0.246137,-12.951701 0,0 -4.445881,2.144165 -4.445881,2.144165 z" />
  </g>
</svg>
